# xmcd CD database file
#
# Track frame offsets:
#	150
#	19143
#	35688
#	51896
#	71805
#	86915
#	105738
#	119248
#	136397
#	156356
#	173693
#	190489
#	209752
#	223733
#	237983
#	250707
#	270644
#	283415
#
# Disc length: 3999 seconds
#
# Revision: 1
# Processed by: cddbd v1.5.1PL0 Copyright (c) Steve Scherf et al.
# Submitted via: jetAudio 5
#
DISCID=280f9d12
DTITLE=Nenito Sarturi e Convidados - Caminhos de Santiago
DYEAR=1900
DGENRE=
TTITLE0=Santiago do Coração
TTITLE1=Quando o Eurides Tocava
TTITLE2=Santiago, Terra dos Poetas
TTITLE3=Aureliano Vive
TTITLE4=Santiago, Minha Terra
TTITLE5=Prosa de Pampa e Rio
TTITLE6=Terra de Artista
TTITLE7=Avançando
TTITLE8=Réquiem por Jaime Pinto
TTITLE9=Santiago do Boqueirão
TTITLE10=Fandango em Unistalda
TTITLE11=Prá Cantar Meu Pilão D'Água
TTITLE12=Tributo à Comadrinha
TTITLE13=Santiago, Baita Chão
TTITLE14=Retoço do Barro Preto
TTITLE15=Nos Bailes da Vila Branca
TTITLE16=Léguas de Saudade
TTITLE17=Hino de Santiago
EXTD=Musica Nativista do Rio Grande do Sul - Brasil
EXTT0=Música Nativista do Rio Grande do Sul - Brasil
EXTT1=Música Nativista do Rio Grande do Sul - Brasil
EXTT2=Música Nativista do Rio Grande do Sul - Brasil
EXTT3=Música Nativista do Rio Grande do Sul - Brasil
EXTT4=Música Nativista do Rio Grande do Sul - Brasil
EXTT5=Música Nativista do Rio Grande do Sul - Brasil
EXTT6=Música Nativista do Rio Grande do Sul - Brasil
EXTT7=Música Nativista do Rio Grande do Sul - Brasil
EXTT8=Música Nativista do Rio Grande do Sul - Brasil
EXTT9=Música Nativista do Rio Grande do Sul - Brasil
EXTT10=Música Nativista do Rio Grande do Sul - Brasil
EXTT11=Música Nativista do Rio Grande do Sul - Brasil
EXTT12=Música Nativista do Rio Grande do Sul - Brasil
EXTT13=Música Nativista do Rio Grande do Sul - Brasil
EXTT14=Música Nativista do Rio Grande do Sul - Brasil
EXTT15=Música Nativista do Rio Grande do Sul - Brasil
EXTT16=Música Nativista do Rio Grande do Sul - Brasil
EXTT17=Música Nativista do Rio Grande do Sul - Brasil
PLAYORDER=
